<svg id="Capa_1" enable-background="new 0 0 512 512" height="512" viewBox="0 0 512 512" width="512" xmlns="http://www.w3.org/2000/svg"><g><path fill="#f1f1f1" d="m437.02 74.981c-48.353-48.352-112.64-74.981-181.02-74.981s-132.667 26.629-181.02 74.981c-48.351 48.351-74.98 112.639-74.98 181.019s26.629 132.668 74.98 181.02c48.353 48.351 112.64 74.98 181.02 74.98s132.667-26.629 181.02-74.981c48.351-48.351 74.98-112.639 74.98-181.019s-26.629-132.668-74.98-181.019zm-15.02 181.019c0 91.533-74.468 166-166 166s-166-74.467-166-166 74.468-166 166-166 166 74.467 166 166z"/><ellipse fill="#fbe4b3" cx="256" cy="256" rx="89.666" ry="89.667" transform="matrix(.924 -.383 .383 .924 -78.48 117.454)"/></g></svg>